P3
70 50
255
204 204 204 204 204 204 204 204 204 51 51 51 51 51 51 51 51 51 51 51 51 51 51 51 51 51 51 51 51 51 204 204 204 204 204 204 204 204 204 204 204 204 204 204 204 204 204 204 204 204 204 51 51 51 51 51 51 51 51 51 51 51 51 51 51 51 51 51 51 51 51 51 204 204 204 204 204 204 204 204 204 204 204 204 204 204 204 204 204 204 204 204 204 51 51 51 51 51 51 51 51 51 51 51 51 51 51 51 51 51 51 51 51 51 204 204 204 204 204 204 204 204 204 204 204 204 204 204 204 204 204 204 204 204 204 51 51 51 51 51 51 51 51 51 51 51 51 51 51 51 
51 51 51 51 51 51 204 204 204 204 204 204 204 204 204 204 204 204 204 204 204 204 204 204 204 204 204 51 51 51 51 51 51 51 51 51 51 51 51 51 51 51 51 51 51 51 51 51 204 204 204 204 204 204 204 204 204 204 204 204 204 204 204 204 204 204 204 204 204 51 51 51 51 51 51 51 51 51 51 51 51 51 51 51 51 51 51 51 51 51 204 204 204 204 204 204 204 204 204 204 204 204 204 204 204 204 204 204 204 204 204 51 51 51 51 51 51 51 51 51 51 51 51 51 51 51 51 51 51 51 51 51 204 204 204 204 204 204 204 204 204 204 204 204 204 204 204 204 204 204 
204 204 204 51 51 51 51 51 51 51 51 51 51 51 51 51 51 51 51 51 51 51 51 51 204 204 204 204 204 204 204 204 204 204 204 204 204 204 204 204 204 204 204 204 204 51 51 51 51 51 51 51 51 51 51 51 51 51 51 51 51 51 51 51 51 51 204 204 204 204 204 204 204 204 204 204 204 204 204 204 204 204 204 204 204 204 204 51 51 51 51 51 51 51 51 51 51 51 51 51 51 51 51 51 51 51 51 51 204 204 204 204 204 204 204 204 204 204 204 204 204 204 204 204 204 204 204 204 204 51 51 51 51 51 51 51 51 51 51 51 51 51 51 51 51 51 51 51 51 51 
204 204 204 204 204 204 204 204 204 204 204 204 204 204 204 204 204 204 204 204 204 51 51 51 51 51 51 51 51 51 51 51 51 51 51 51 51 51 51 51 51 51 204 204 204 204 204 204 204 204 204 204 204 204 204 204 204 204 204 204 204 204 204 51 51 51 51 51 51 51 51 51 51 51 51 51 51 51 51 51 51 51 51 51 204 204 204 204 204 204 204 204 204 204 204 204 204 204 204 204 204 204 204 204 204 51 51 51 51 51 51 51 51 51 51 51 51 51 51 51 51 51 51 51 51 51 204 204 204 204 204 204 204 204 204 204 204 204 204 204 204 204 204 204 204 204 204 51 51 51 
51 51 51 51 51 51 51 51 51 51 51 51 51 51 51 51 51 51 204 204 204 204 204 204 204 204 204 204 204 204 51 51 51 51 51 51 51 51 51 204 204 204 204 204 204 204 204 204 204 204 204 204 204 204 204 204 204 204 204 204 51 51 51 51 51 51 51 51 51 51 51 51 51 51 51 51 51 51 51 51 51 204 204 204 204 204 204 204 204 204 204 204 204 204 204 204 204 204 204 204 204 204 51 51 51 51 51 51 51 51 51 51 51 51 51 51 51 51 51 51 51 51 51 204 204 204 204 204 204 204 204 204 204 204 204 204 204 204 204 204 204 204 204 204 51 51 51 51 51 51 
51 51 51 51 51 51 51 51 51 51 51 51 51 51 51 204 204 204 204 204 204 204 204 204 204 204 204 204 204 204 204 204 204 204 204 204 51 51 51 51 51 51 51 51 51 51 51 51 51 51 51 51 51 51 51 51 51 204 204 204 204 204 204 204 204 204 204 204 204 204 204 204 204 204 204 204 204 204 51 51 51 51 51 51 51 51 51 51 51 51 51 51 51 51 51 51 51 51 51 204 204 204 204 204 204 204 204 204 204 204 204 204 204 204 204 204 204 204 204 204 51 51 51 51 51 51 51 51 51 51 51 51 51 51 51 51 51 51 51 51 51 204 204 204 204 204 204 204 204 204 
204 204 204 204 204 204 204 204 204 204 204 204 51 51 51 51 51 51 51 51 51 51 51 51 51 51 51 51 51 51 51 51 51 204 204 204 204 204 204 204 204 204 204 204 204 204 204 204 204 204 204 204 204 204 51 51 51 51 51 51 51 51 51 51 51 51 51 51 51 51 51 51 51 51 51 204 204 204 204 204 204 204 204 204 204 204 204 204 204 204 204 204 204 204 204 204 51 51 51 51 51 51 51 51 51 51 51 51 51 51 51 51 51 51 51 51 51 204 204 204 204 204 204 204 204 204 204 204 204 204 204 204 204 204 204 204 204 204 51 51 51 51 51 51 51 51 51 51 51 51 
51 51 51 51 51 51 51 51 51 204 204 204 204 204 204 204 204 204 204 204 204 204 204 204 204 204 204 204 204 204 51 51 51 51 51 51 51 51 51 51 51 51 51 51 51 51 51 51 51 51 51 204 204 204 204 204 204 204 204 204 204 204 204 204 204 204 204 204 204 204 204 204 51 51 51 51 51 51 51 51 51 51 51 51 51 51 51 51 51 51 51 51 51 204 204 204 204 204 204 204 204 204 204 204 204 204 204 204 204 204 204 204 204 204 51 51 51 51 51 51 51 51 51 51 51 51 51 51 51 51 51 51 51 51 51 204 204 204 204 204 204 204 204 204 204 204 204 204 204 204 
204 204 204 204 204 204 51 51 51 51 51 51 51 51 51 51 51 51 51 51 51 51 51 51 51 51 51 204 204 204 204 204 204 204 204 204 204 204 204 204 204 204 204 204 204 204 204 204 51 51 51 51 51 51 51 51 51 51 51 51 51 51 51 51 51 51 51 51 51 204 204 204 204 204 204 204 204 204 204 204 204 204 204 204 204 204 204 204 204 204 51 51 51 51 51 51 51 51 51 51 51 51 51 51 51 51 51 51 51 51 51 204 204 204 204 204 204 204 204 204 204 204 204 204 204 204 204 204 204 204 204 204 51 51 51 51 51 51 51 51 51 51 51 51 51 51 51 51 51 51 
51 51 51 204 204 204 204 204 204 204 204 204 204 204 204 204 204 204 204 204 204 204 204 204 51 51 51 51 51 51 51 51 51 51 51 51 51 51 51 51 51 51 51 51 51 204 204 204 204 204 204 204 204 204 204 204 204 204 204 204 204 204 204 204 204 204 51 51 51 51 51 51 51 51 51 51 51 51 51 51 51 51 51 51 51 51 51 204 204 204 204 204 204 204 204 204 204 204 204 204 204 204 204 204 204 204 204 204 51 51 51 51 51 51 51 51 51 51 51 51 51 51 51 51 51 51 51 51 51 204 204 204 204 204 204 204 204 204 204 204 204 204 204 204 204 204 204 204 204 204 
51 51 51 51 51 51 51 51 51 51 51 51 51 51 51 51 51 51 51 51 51 204 204 204 204 204 204 204 204 204 204 204 204 204 204 204 204 204 204 204 204 204 51 51 51 51 51 51 51 51 51 51 51 51 51 51 51 51 51 51 51 51 51 204 204 204 204 204 204 204 204 204 204 204 204 204 204 204 204 204 204 204 204 204 51 51 51 51 51 51 51 51 51 51 51 51 51 51 51 51 51 51 51 51 51 204 204 204 204 204 204 204 204 204 204 204 204 204 204 204 204 204 204 204 204 204 51 51 51 51 51 51 51 51 51 51 51 51 51 51 51 51 51 51 51 51 51 204 204 204 
204 204 204 204 204 204 204 204 204 204 204 204 204 204 204 204 204 204 51 51 51 51 51 51 51 51 51 51 51 51 51 51 51 51 51 51 51 51 51 204 204 204 204 204 204 204 204 204 204 204 204 204 204 204 204 204 204 204 204 204 51 51 51 51 51 51 51 51 51 51 51 51 51 51 51 51 51 51 51 51 51 204 204 204 204 204 204 204 204 204 204 204 204 204 204 204 204 204 204 204 204 204 51 51 51 51 51 51 51 51 51 51 51 51 51 51 51 51 51 51 51 51 51 204 204 204 204 204 204 204 204 204 204 204 204 204 204 204 204 204 204 204 204 204 51 51 51 51 51 51 
51 51 51 51 51 51 51 51 51 51 51 51 51 51 51 204 204 204 204 204 204 204 204 204 204 204 204 204 204 204 204 204 204 204 204 204 51 51 51 51 51 51 51 51 51 51 51 51 51 51 51 51 51 51 51 51 51 204 204 204 204 204 204 204 204 204 204 204 204 204 204 204 204 204 204 204 204 204 51 51 51 51 51 51 51 51 51 51 51 51 51 51 51 51 51 51 51 51 51 204 204 204 204 204 204 204 204 204 204 204 204 204 204 204 204 204 204 204 204 204 51 51 51 51 51 51 51 51 51 51 51 51 51 51 51 51 51 51 51 51 51 204 204 204 204 204 204 204 204 204 
204 204 204 204 204 204 204 204 204 204 204 204 51 51 51 51 51 51 51 51 51 51 51 51 51 51 51 51 51 51 51 51 51 204 204 204 204 204 204 204 204 204 204 204 204 204 204 204 204 204 204 204 204 204 51 51 51 51 51 51 51 51 51 51 51 51 51 51 51 51 51 51 51 51 51 204 204 204 204 204 204 204 204 204 204 204 204 204 204 204 204 204 204 204 204 204 51 51 51 51 51 51 51 51 51 51 51 51 51 51 51 51 51 51 51 51 51 204 204 204 204 204 204 204 204 204 204 204 204 204 204 204 204 204 204 204 204 204 51 51 51 51 51 51 51 51 51 51 51 51 
204 204 204 204 204 204 204 204 204 51 51 51 51 51 51 51 51 51 51 51 51 51 51 51 51 51 51 51 51 51 204 204 204 204 204 204 204 204 204 204 204 204 204 204 204 204 204 204 204 204 204 51 51 51 51 51 51 51 51 51 51 51 51 51 51 51 51 51 51 51 51 51 204 204 204 204 204 204 204 204 204 204 204 204 204 204 204 204 204 204 204 204 204 51 51 51 51 51 51 51 51 51 51 51 51 51 51 51 51 51 51 51 51 51 204 204 204 204 204 204 204 204 204 204 204 204 204 204 204 204 204 204 204 204 204 51 51 51 51 51 51 51 51 51 51 51 51 51 51 51 
51 51 51 51 51 51 204 204 204 204 204 204 204 204 204 204 204 204 204 204 204 204 204 204 204 204 204 51 51 51 51 51 51 51 51 51 51 51 51 51 51 51 51 51 51 51 51 51 204 204 204 204 204 204 204 204 204 204 204 204 204 204 204 204 204 204 204 204 204 51 51 51 51 51 51 51 51 51 51 51 51 51 51 51 51 51 51 51 51 51 204 204 204 204 204 204 204 204 204 204 204 204 204 204 204 204 204 204 204 204 204 51 51 51 51 51 51 51 51 51 51 51 51 51 51 51 51 51 51 51 51 51 204 204 204 204 204 204 204 204 204 204 204 204 204 204 204 204 204 204 
204 204 204 51 51 51 51 51 51 51 51 51 51 51 51 51 51 51 51 51 51 51 51 51 204 204 204 204 204 204 204 204 204 204 204 204 204 204 204 204 204 204 204 204 204 51 51 51 51 51 51 51 51 51 51 51 51 51 51 51 51 51 51 51 51 51 204 204 204 204 204 204 204 204 204 204 204 204 204 204 204 204 204 204 204 204 204 51 51 51 51 51 51 51 51 51 51 51 51 51 51 51 51 51 51 51 51 51 204 204 204 204 204 204 204 204 204 204 204 204 204 204 204 204 204 204 204 204 204 51 51 51 51 51 51 51 51 51 51 51 51 51 51 51 51 51 51 51 51 51 
204 204 204 204 204 204 204 204 204 204 204 204 204 204 204 204 204 204 204 204 204 51 51 51 51 51 51 51 51 51 51 51 51 51 51 51 51 51 51 51 51 51 204 204 204 204 204 204 204 204 204 204 204 204 204 204 204 204 204 204 204 204 204 51 51 51 51 51 51 51 51 51 51 51 51 51 51 51 51 51 51 51 51 51 204 204 204 204 204 204 204 204 204 204 204 204 204 204 204 204 204 204 204 204 204 51 51 51 51 51 51 51 51 51 51 51 51 51 51 51 51 51 51 51 51 51 204 204 204 204 204 204 204 204 204 204 204 204 204 204 204 204 204 204 204 204 204 51 51 51 
51 51 51 51 51 51 51 51 51 51 51 51 51 51 51 51 51 51 204 204 204 204 204 204 204 204 204 204 204 204 204 204 204 204 204 204 204 204 204 51 51 51 51 51 51 51 51 51 51 51 51 51 51 51 51 51 51 51 51 51 204 204 204 204 204 204 204 204 204 204 204 204 204 204 204 204 204 204 204 204 204 51 51 51 51 51 51 51 51 51 51 51 51 51 51 51 51 51 51 51 51 51 204 204 204 204 204 204 204 204 204 204 204 204 204 204 204 204 204 204 204 204 204 51 51 51 51 51 51 51 51 51 51 51 51 51 51 51 51 51 51 51 51 51 204 204 204 204 204 204 
204 204 204 204 204 204 204 204 204 204 204 204 204 204 204 51 51 51 51 51 51 51 51 51 51 51 51 51 51 51 51 51 51 51 51 51 204 204 204 204 204 204 204 204 204 204 204 204 204 204 204 204 204 204 204 204 204 51 51 51 51 51 51 51 51 51 51 51 51 51 51 51 51 51 51 51 51 51 204 204 204 204 204 204 204 204 204 204 204 204 204 204 204 204 204 204 204 204 204 51 51 51 51 51 51 51 51 51 51 51 51 51 51 51 51 51 51 51 51 51 204 204 204 204 204 204 204 204 204 204 204 204 204 204 204 204 204 204 204 204 204 51 51 51 51 51 51 51 51 51 
51 51 51 51 51 51 51 51 51 51 51 51 204 204 204 204 204 204 204 204 204 204 204 204 204 204 204 204 204 204 204 204 204 51 51 51 51 51 51 51 51 51 51 51 51 51 51 51 51 51 51 51 51 51 204 204 204 204 204 204 204 204 204 204 204 204 204 204 204 204 204 204 204 204 204 51 51 51 51 51 51 51 51 51 51 51 51 51 51 51 51 51 51 51 51 51 204 204 204 204 204 204 204 204 204 204 204 204 204 204 204 204 204 204 204 204 204 51 51 51 51 51 51 51 51 51 51 51 51 51 51 51 51 51 51 51 51 51 204 204 204 204 204 204 204 204 204 204 204 204 
204 204 204 204 204 204 204 204 204 51 51 51 51 51 51 51 51 51 51 51 51 51 51 51 51 51 51 51 51 51 204 204 204 204 204 204 204 204 204 204 204 204 204 204 204 204 204 204 204 204 204 51 51 51 51 51 51 51 51 51 51 51 51 51 51 51 51 51 51 51 51 51 204 204 204 204 204 204 204 204 204 204 204 204 204 204 204 204 204 204 204 204 204 51 51 51 51 51 51 51 51 51 51 51 51 51 51 51 51 51 51 51 51 51 204 204 204 204 204 204 204 204 204 204 204 204 204 204 204 204 204 204 204 204 204 51 51 51 51 51 51 51 51 51 51 51 51 51 51 51 
51 51 51 51 51 51 204 204 204 204 204 204 204 204 204 204 204 204 204 204 204 204 204 204 204 204 204 51 51 51 51 51 51 51 51 51 51 51 51 51 51 51 51 51 51 51 51 51 204 204 204 204 204 204 204 204 204 204 204 204 204 204 204 204 204 204 204 204 204 51 51 51 51 51 51 51 51 51 51 51 51 51 51 51 51 51 51 51 51 51 204 204 204 204 204 204 204 204 204 204 204 204 204 204 204 204 204 204 204 204 204 51 51 51 51 51 51 51 51 51 51 51 51 51 51 51 51 51 51 51 51 51 204 204 204 204 204 204 204 204 204 204 204 204 204 204 204 204 204 204 
204 204 204 51 51 51 51 51 51 51 51 51 51 51 51 51 51 51 51 51 51 51 51 51 204 204 204 204 204 204 204 204 204 204 204 204 204 204 204 204 204 204 204 204 204 51 51 51 51 51 51 51 51 51 51 51 51 51 51 51 51 51 51 51 51 51 204 204 204 204 204 204 204 204 204 204 204 204 204 204 204 204 204 204 204 204 204 51 51 51 51 51 51 51 51 51 51 51 51 51 51 51 51 51 51 51 51 51 204 204 204 204 204 204 204 204 204 204 204 204 51 51 51 51 51 51 51 51 51 204 204 204 204 204 204 204 204 204 204 204 204 204 204 204 204 204 204 204 204 204 
51 51 51 51 51 51 51 51 51 51 51 51 51 51 51 51 51 51 51 51 51 204 204 204 204 204 204 204 204 204 204 204 204 204 204 204 204 204 204 204 204 204 51 51 51 51 51 51 51 51 51 51 51 51 51 51 51 51 51 51 51 51 51 204 204 204 204 204 204 204 204 204 204 204 204 204 204 204 204 204 204 204 204 204 51 51 51 51 51 51 51 51 51 51 51 51 51 51 51 51 51 51 51 51 51 204 204 204 204 204 204 204 204 204 204 204 204 204 204 204 204 204 204 204 204 204 51 51 51 51 51 51 51 51 51 51 51 51 51 51 51 51 51 51 51 51 51 204 204 204 
204 204 204 204 204 204 204 204 204 204 204 204 204 204 204 204 204 204 51 51 51 51 51 51 51 51 51 51 51 51 51 51 51 51 51 51 51 51 51 204 204 204 204 204 204 204 204 204 204 204 204 204 204 204 204 204 204 204 204 204 51 51 51 51 51 51 51 51 51 51 51 51 51 51 51 51 51 51 51 51 51 204 204 204 204 204 204 204 204 204 204 204 204 204 204 204 204 204 204 204 204 204 51 51 51 51 51 51 51 51 51 51 51 51 51 51 51 51 51 51 51 51 51 204 204 204 204 204 204 204 204 204 204 204 204 204 204 204 204 204 204 204 204 204 51 51 51 51 51 51 
51 51 51 51 51 51 51 51 51 51 51 51 51 51 51 204 204 204 204 204 204 204 204 204 204 204 204 204 204 204 204 204 204 204 204 204 51 51 51 51 51 51 51 51 51 51 51 51 51 51 51 51 51 51 51 51 51 204 204 204 204 204 204 204 204 204 204 204 204 204 204 204 204 204 204 204 204 204 51 51 51 51 51 51 51 51 51 51 51 51 51 51 51 51 51 51 51 51 51 204 204 204 204 204 204 204 204 204 204 204 204 204 204 204 204 204 204 204 204 204 51 51 51 51 51 51 51 51 51 51 51 51 51 51 51 51 51 51 51 51 51 204 204 204 204 204 204 204 204 204 
204 204 204 204 204 204 204 204 204 204 204 204 51 51 51 51 51 51 51 51 51 51 51 51 51 51 51 51 51 51 51 51 51 204 204 204 204 204 204 204 204 204 204 204 204 204 204 204 204 204 204 204 204 204 51 51 51 51 51 51 51 51 51 51 51 51 51 51 51 51 51 51 51 51 51 204 204 204 204 204 204 204 204 204 204 204 204 204 204 204 204 204 204 204 204 204 51 51 51 51 51 51 51 51 51 51 51 51 51 51 51 51 51 51 51 51 51 204 204 204 204 204 204 204 204 204 204 204 204 204 204 204 204 204 204 204 204 204 51 51 51 51 51 51 51 51 51 51 51 51 
51 51 51 51 51 51 51 51 51 204 204 204 204 204 204 204 204 204 204 204 204 204 204 204 204 204 204 204 204 204 51 51 51 51 51 51 51 51 51 51 51 51 51 51 51 51 51 51 51 51 51 204 204 204 204 204 204 204 204 204 204 204 204 204 204 204 204 204 204 204 204 204 51 51 51 51 51 51 51 51 51 51 51 51 51 51 51 51 51 51 51 51 51 204 204 204 204 204 204 204 204 204 204 204 204 204 204 204 204 204 204 204 204 204 51 51 51 51 51 51 51 51 51 51 51 51 51 51 51 51 51 51 51 51 51 204 204 204 204 204 204 204 204 204 204 204 204 204 204 204 
204 204 204 204 204 204 51 51 51 51 51 51 51 51 51 51 51 51 51 51 51 51 51 51 51 51 51 204 204 204 204 204 204 204 204 204 204 204 204 204 204 204 204 204 204 204 204 204 51 51 51 51 51 51 51 51 51 51 51 51 51 51 51 51 51 51 51 51 51 204 204 204 204 204 204 204 204 204 204 204 204 204 204 204 204 204 204 204 204 204 51 51 51 51 51 51 51 51 51 51 51 51 51 51 51 51 51 51 51 51 51 204 204 204 204 204 204 204 204 204 204 204 204 204 204 204 204 204 204 204 204 204 51 51 51 51 51 51 51 51 51 51 51 51 51 51 51 51 51 51 
51 51 51 204 204 204 204 204 204 204 204 204 204 204 204 204 204 204 204 204 204 204 204 204 51 51 51 51 51 51 51 51 51 51 51 51 51 51 51 51 51 51 51 51 51 204 204 204 204 204 204 204 204 204 204 204 204 204 204 204 204 204 204 204 204 204 51 51 51 51 51 51 51 51 51 51 51 51 51 51 51 51 51 51 51 51 51 204 204 204 204 204 204 204 204 204 204 204 204 204 204 204 204 204 204 204 204 204 51 51 51 51 51 51 51 51 51 51 51 51 51 51 51 51 51 51 51 51 51 204 204 204 204 204 204 204 204 204 204 204 204 204 204 204 204 204 204 204 204 204 
51 51 51 51 51 51 51 51 51 51 51 51 51 51 51 51 51 51 51 51 51 204 204 204 204 204 204 204 204 204 204 204 204 204 204 204 204 204 204 204 204 204 51 51 51 51 51 51 51 51 51 51 51 51 51 51 51 51 51 51 51 51 51 204 204 204 204 204 204 204 204 204 204 204 204 204 204 204 204 204 204 204 204 204 51 51 51 51 51 51 51 51 51 51 51 51 51 51 51 51 51 51 51 51 51 204 204 204 204 204 204 204 204 204 204 204 204 204 204 204 204 204 204 204 204 204 51 51 51 51 51 51 51 51 51 51 51 51 51 51 51 51 51 51 51 51 51 204 204 204 
204 204 204 204 204 204 204 204 204 204 204 204 204 204 204 204 204 204 51 51 51 51 51 51 51 51 51 51 51 51 51 51 51 51 51 51 51 51 51 204 204 204 204 204 204 204 204 204 204 204 204 204 204 204 204 204 204 204 204 204 51 51 51 51 51 51 51 51 51 51 51 51 51 51 51 51 51 51 51 51 51 204 204 204 204 204 204 204 204 204 204 204 204 204 204 204 204 204 204 204 204 204 51 51 51 51 51 51 51 51 51 51 51 51 51 51 51 51 51 51 51 51 51 204 204 204 204 204 204 204 204 204 204 204 204 204 204 204 204 204 204 204 204 204 51 51 51 51 51 51 
51 51 51 51 51 51 51 51 51 51 51 51 51 51 51 204 204 204 204 204 204 204 204 204 204 204 204 204 204 204 204 204 204 204 204 204 51 51 51 51 51 51 51 51 51 51 51 51 51 51 51 51 51 51 51 51 51 204 204 204 204 204 204 204 204 204 204 204 204 204 204 204 204 204 204 204 204 204 51 51 51 51 51 51 51 51 51 51 51 51 204 204 204 204 204 204 204 204 204 51 51 51 51 51 51 51 51 51 51 51 51 51 51 51 51 51 51 51 51 51 204 204 204 204 204 204 204 204 204 204 204 204 204 204 204 204 204 204 204 204 204 51 51 51 51 51 51 51 51 51 
51 51 51 51 51 51 51 51 51 51 51 51 204 204 204 204 204 204 204 204 204 204 204 204 204 204 204 204 204 204 204 204 204 51 51 51 51 51 51 51 51 51 51 51 51 51 51 51 51 51 51 51 51 51 204 204 204 204 204 204 204 204 204 204 204 204 204 204 204 204 204 204 204 204 204 51 51 51 51 51 51 51 51 51 51 51 51 51 51 51 51 51 51 51 51 51 204 204 204 204 204 204 204 204 204 204 204 204 204 204 204 204 204 204 204 204 204 51 51 51 51 51 51 51 51 51 51 51 51 51 51 51 51 51 51 51 51 51 204 204 204 204 204 204 204 204 204 204 204 204 
204 204 204 204 204 204 204 204 204 51 51 51 51 51 51 51 51 51 51 51 51 51 51 51 51 51 51 51 51 51 204 204 204 204 204 204 204 204 204 204 204 204 204 204 204 204 204 204 204 204 204 51 51 51 51 51 51 51 51 51 51 51 51 51 51 51 51 51 51 51 51 51 204 204 204 204 204 204 204 204 204 204 204 204 204 204 204 204 204 204 204 204 204 51 51 51 51 51 51 51 51 51 51 51 51 51 51 51 51 51 51 51 51 51 204 204 204 204 204 204 204 204 204 204 204 204 204 204 204 204 204 204 204 204 204 51 51 51 51 51 51 51 51 51 51 51 51 51 51 51 
51 51 51 51 51 51 204 204 204 204 204 204 204 204 204 204 204 204 204 204 204 204 204 204 204 204 204 51 51 51 51 51 51 51 51 51 51 51 51 51 51 51 51 51 51 51 51 51 204 204 204 204 204 204 204 204 204 204 204 204 204 204 204 204 204 204 204 204 204 51 51 51 51 51 51 51 51 51 51 51 51 51 51 51 51 51 51 51 51 51 204 204 204 204 204 204 204 204 204 204 204 204 204 204 204 204 204 204 204 204 204 51 51 51 51 51 51 51 51 51 51 51 51 51 51 51 51 51 51 51 51 51 204 204 204 204 204 204 204 204 204 204 204 204 204 204 204 204 204 204 
204 204 204 51 51 51 51 51 51 51 51 51 51 51 51 51 51 51 51 51 51 51 51 51 204 204 204 204 204 204 204 204 204 204 204 204 204 204 204 204 204 204 204 204 204 51 51 51 51 51 51 51 51 51 51 51 51 51 51 51 51 51 51 51 51 51 204 204 204 204 204 204 204 204 204 204 204 204 204 204 204 204 204 204 204 204 204 51 51 51 51 51 51 51 51 51 51 51 51 51 51 51 51 51 51 51 51 51 204 204 204 204 204 204 204 204 204 204 204 204 204 204 204 204 204 204 204 204 204 51 51 51 51 51 51 51 51 51 51 51 51 51 51 51 51 51 51 51 51 51 
204 204 204 204 204 204 204 204 204 204 204 204 204 204 204 204 204 204 204 204 204 51 51 51 51 51 51 51 51 51 51 51 51 51 51 51 51 51 51 51 51 51 204 204 204 204 204 204 204 204 204 204 204 204 204 204 204 204 204 204 204 204 204 51 51 51 51 51 51 51 51 51 51 51 51 51 51 51 51 51 51 51 51 51 204 204 204 204 204 204 204 204 204 204 204 204 204 204 204 204 204 204 204 204 204 51 51 51 51 51 51 51 51 51 51 51 51 51 51 51 51 51 51 51 51 51 204 204 204 204 204 204 204 204 204 204 204 204 204 204 204 204 204 204 204 204 204 51 51 51 
51 51 51 51 51 51 51 51 51 51 51 51 51 51 51 51 51 51 204 204 204 204 204 204 204 204 204 204 204 204 204 204 204 204 204 204 204 204 204 51 51 51 51 51 51 51 51 51 51 51 51 51 51 51 51 51 51 51 51 51 204 204 204 204 204 204 204 204 204 204 204 204 204 204 204 204 204 204 204 204 204 51 51 51 51 51 51 51 51 51 51 51 51 51 51 51 51 51 51 51 51 51 204 204 204 204 204 204 204 204 204 204 204 204 204 204 204 204 204 204 204 204 204 51 51 51 51 51 51 51 51 51 51 51 51 51 51 51 51 51 51 51 51 51 204 204 204 204 204 204 
204 204 204 204 204 204 204 204 204 204 204 204 204 204 204 51 51 51 51 51 51 51 51 51 51 51 51 51 51 51 51 51 51 51 51 51 204 204 204 204 204 204 204 204 204 204 204 204 204 204 204 204 204 204 204 204 204 51 51 51 51 51 51 51 51 51 51 51 51 51 51 51 51 51 51 51 51 51 204 204 204 204 204 204 204 204 204 204 204 204 204 204 204 204 204 204 204 204 204 51 51 51 51 51 51 51 51 51 51 51 51 51 51 51 51 51 51 51 51 51 204 204 204 204 204 204 204 204 204 204 204 204 204 204 204 204 204 204 204 204 204 51 51 51 51 51 51 51 51 51 
51 51 51 51 51 51 51 51 51 51 51 51 204 204 204 204 204 204 204 204 204 204 204 204 204 204 204 204 204 204 204 204 204 51 51 51 51 51 51 51 51 51 51 51 51 51 51 51 51 51 51 51 51 51 204 204 204 204 204 204 204 204 204 204 204 204 204 204 204 204 204 204 204 204 204 51 51 51 51 51 51 51 51 51 51 51 51 51 51 51 51 51 51 51 51 51 204 204 204 204 204 204 204 204 204 204 204 204 204 204 204 204 204 204 204 204 204 51 51 51 51 51 51 51 51 51 51 51 51 51 51 51 51 51 51 51 51 51 204 204 204 204 204 204 204 204 204 204 204 204 
204 204 204 204 204 204 204 204 204 51 51 51 51 51 51 51 51 51 51 51 51 51 51 51 51 51 51 51 51 51 204 204 204 204 204 204 204 204 204 204 204 204 204 204 204 204 204 204 204 204 204 51 51 51 51 51 51 51 51 51 51 51 51 51 51 51 51 51 51 51 51 51 204 204 204 204 204 204 204 204 204 204 204 204 204 204 204 204 204 204 204 204 204 51 51 51 51 51 51 51 51 51 51 51 51 51 51 51 51 51 51 51 51 51 204 204 204 204 204 204 204 204 204 204 204 204 204 204 204 204 204 204 204 204 204 51 51 51 51 51 51 51 51 51 51 51 51 51 51 51 
51 51 51 51 51 51 204 204 204 204 204 204 204 204 204 204 204 204 204 204 204 204 204 204 204 204 204 51 51 51 51 51 51 51 51 51 51 51 51 51 51 51 51 51 51 51 51 51 204 204 204 204 204 204 204 204 204 204 204 204 51 51 51 51 51 51 51 51 51 204 204 204 204 204 204 204 204 204 204 204 204 204 204 204 204 204 204 204 204 204 51 51 51 51 51 51 51 51 51 51 51 51 51 51 51 51 51 51 51 51 51 204 204 204 204 204 204 204 204 204 204 204 204 204 204 204 204 204 204 204 204 204 51 51 51 51 51 51 51 51 51 51 51 51 51 51 51 51 51 51 
51 51 51 204 204 204 204 204 204 204 204 204 204 204 204 204 204 204 204 204 204 204 204 204 51 51 51 51 51 51 51 51 51 51 51 51 51 51 51 51 51 51 51 51 51 204 204 204 204 204 204 204 204 204 204 204 204 204 204 204 204 204 204 204 204 204 51 51 51 51 51 51 51 51 51 51 51 51 51 51 51 51 51 51 51 51 51 204 204 204 204 204 204 204 204 204 204 204 204 204 204 204 204 204 204 204 204 204 51 51 51 51 51 51 51 51 51 51 51 51 51 51 51 51 51 51 51 51 51 204 204 204 204 204 204 204 204 204 204 204 204 204 204 204 204 204 204 204 204 204 
51 51 51 51 51 51 51 51 51 51 51 51 51 51 51 51 51 51 51 51 51 204 204 204 204 204 204 204 204 204 204 204 204 204 204 204 204 204 204 204 204 204 51 51 51 51 51 51 51 51 51 51 51 51 51 51 51 51 51 51 51 51 51 204 204 204 204 204 204 204 204 204 204 204 204 204 204 204 204 204 204 204 204 204 51 51 51 51 51 51 51 51 51 51 51 51 51 51 51 51 51 51 51 51 51 204 204 204 204 204 204 204 204 204 204 204 204 204 204 204 204 204 204 204 204 204 51 51 51 51 51 51 51 51 51 51 51 51 51 51 51 51 51 51 51 51 51 204 204 204 
204 204 204 204 204 204 204 204 204 204 204 204 204 204 204 204 204 204 51 51 51 51 51 51 51 51 51 51 51 51 51 51 51 51 51 51 51 51 51 204 204 204 204 204 204 204 204 204 204 204 204 204 204 204 204 204 204 204 204 204 51 51 51 51 51 51 51 51 51 51 51 51 51 51 51 51 51 51 51 51 51 204 204 204 204 204 204 204 204 204 204 204 204 204 204 204 204 204 204 204 204 204 51 51 51 51 51 51 51 51 51 51 51 51 51 51 51 51 51 51 51 51 51 204 204 204 204 204 204 204 204 204 204 204 204 204 204 204 204 204 204 204 204 204 51 51 51 51 51 51 
51 51 51 51 51 51 51 51 51 51 51 51 51 51 51 204 204 204 204 204 204 204 204 204 204 204 204 204 204 204 204 204 204 204 204 204 51 51 51 51 51 51 51 51 51 51 51 51 51 51 51 51 51 51 51 51 51 204 204 204 204 204 204 204 204 204 204 204 204 204 204 204 204 204 204 204 204 204 51 51 51 51 51 51 51 51 51 51 51 51 51 51 51 51 51 51 51 51 51 204 204 204 204 204 204 204 204 204 204 204 204 204 204 204 204 204 204 204 204 204 51 51 51 51 51 51 51 51 51 51 51 51 51 51 51 51 51 51 51 51 51 204 204 204 204 204 204 204 204 204 
204 204 204 204 204 204 204 204 204 204 204 204 51 51 51 51 51 51 51 51 51 51 51 51 51 51 51 51 51 51 51 51 51 204 204 204 204 204 204 204 204 204 204 204 204 204 204 204 204 204 204 204 204 204 51 51 51 51 51 51 51 51 51 51 51 51 51 51 51 51 51 51 51 51 51 204 204 204 204 204 204 204 204 204 204 204 204 204 204 204 204 204 204 204 204 204 51 51 51 51 51 51 51 51 51 51 51 51 51 51 51 51 51 51 51 51 51 204 204 204 204 204 204 204 204 204 204 204 204 204 204 204 204 204 204 204 204 204 51 51 51 51 51 51 51 51 51 51 51 51 
51 51 51 51 51 51 51 51 51 204 204 204 204 204 204 204 204 204 204 204 204 204 204 204 204 204 204 204 204 204 51 51 51 51 51 51 51 51 51 51 51 51 51 51 51 51 51 51 51 51 51 204 204 204 204 204 204 204 204 204 204 204 204 204 204 204 204 204 204 204 204 204 51 51 51 51 51 51 51 51 51 51 51 51 51 51 51 51 51 51 51 51 51 204 204 204 204 204 204 204 204 204 204 204 204 204 204 204 204 204 204 204 204 204 51 51 51 51 51 51 51 51 51 51 51 51 51 51 51 51 51 51 51 51 51 204 204 204 204 204 204 204 204 204 204 204 204 204 204 204 
204 204 204 204 204 204 51 51 51 51 51 51 51 51 51 51 51 51 51 51 51 51 51 51 51 51 51 204 204 204 204 204 204 204 204 204 204 204 204 204 204 204 204 204 204 204 204 204 51 51 51 51 51 51 51 51 51 51 51 51 51 51 51 51 51 51 51 51 51 204 204 204 204 204 204 204 204 204 204 204 204 204 204 204 204 204 204 204 204 204 51 51 51 51 51 51 51 51 51 51 51 51 51 51 51 51 51 51 51 51 51 204 204 204 204 204 204 204 204 204 204 204 204 204 204 204 204 204 204 204 204 204 51 51 51 51 51 51 51 51 51 51 51 51 51 51 51 51 51 51 
51 51 51 204 204 204 204 204 204 204 204 204 204 204 204 204 204 204 204 204 204 204 204 204 51 51 51 51 51 51 51 51 51 51 51 51 51 51 51 51 51 51 51 51 51 204 204 204 204 204 204 204 204 204 204 204 204 204 204 204 204 204 204 204 204 204 51 51 51 51 51 51 51 51 51 51 51 51 51 51 51 51 51 51 51 51 51 204 204 204 204 204 204 204 204 204 204 204 204 204 204 204 204 204 204 204 204 204 51 51 51 51 51 51 51 51 51 51 51 51 51 51 51 51 51 51 51 51 51 204 204 204 204 204 204 204 204 204 204 204 204 204 204 204 204 204 204 204 204 204 
51 51 51 51 51 51 51 51 51 51 51 51 51 51 51 51 51 51 51 51 51 204 204 204 204 204 204 204 204 204 204 204 204 204 204 204 204 204 204 204 204 204 51 51 51 51 51 51 51 51 51 51 51 51 51 51 51 51 51 51 51 51 51 204 204 204 204 204 204 204 204 204 204 204 204 204 204 204 204 204 204 204 204 204 51 51 51 51 51 51 51 51 51 51 51 51 51 51 51 51 51 51 51 51 51 204 204 204 204 204 204 204 204 204 204 204 204 204 204 204 204 204 204 204 204 204 51 51 51 51 51 51 51 51 51 51 51 51 51 51 51 51 51 51 51 51 51 204 204 204 
204 204 204 204 204 204 204 204 204 204 204 204 204 204 204 204 204 204 51 51 51 51 51 51 51 51 51 51 51 51 204 204 204 204 204 204 204 204 204 51 51 51 51 51 51 51 51 51 51 51 51 51 51 51 51 51 51 51 51 51 204 204 204 204 204 204 204 204 204 204 204 204 204 204 204 204 204 204 204 204 204 51 51 51 51 51 51 51 51 51 51 51 51 51 51 51 51 51 51 51 51 51 204 204 204 204 204 204 204 204 204 204 204 204 204 204 204 204 204 204 204 204 204 51 51 51 51 51 51 51 51 51 51 51 51 51 51 51 51 51 51 51 51 51 204 204 204 204 204 204 
204 204 204 204 204 204 204 204 204 204 204 204 204 204 204 51 51 51 51 51 51 51 51 51 51 51 51 51 51 51 51 51 51 51 51 51 204 204 204 204 204 204 204 204 204 204 204 204 204 204 204 204 204 204 204 204 204 51 51 51 51 51 51 51 51 51 51 51 51 51 51 51 51 51 51 51 51 51 204 204 204 204 204 204 204 204 204 204 204 204 204 204 204 204 204 204 204 204 204 51 51 51 51 51 51 51 51 51 51 51 51 51 51 51 51 51 51 51 51 51 204 204 204 204 204 204 204 204 204 204 204 204 204 204 204 204 204 204 204 204 204 51 51 51 51 51 51 51 51 51 
51 51 51 51 51 51 51 51 51 51 51 51 204 204 204 204 204 204 204 204 204 204 204 204 204 204 204 204 204 204 204 204 204 51 51 51 51 51 51 51 51 51 51 51 51 51 51 51 51 51 51 51 51 51 204 204 204 204 204 204 204 204 204 204 204 204 204 204 204 204 204 204 204 204 204 51 51 51 51 51 51 51 51 51 51 51 51 51 51 51 51 51 51 51 51 51 204 204 204 204 204 204 204 204 204 204 204 204 204 204 204 204 204 204 204 204 204 51 51 51 51 51 51 51 51 51 51 51 51 51 51 51 51 51 51 51 51 51 204 204 204 204 204 204 204 204 204 204 204 204 
204 204 204 204 204 204 204 204 204 51 51 51 51 51 51 51 51 51 51 51 51 51 51 51 51 51 51 51 51 51 204 204 204 204 204 204 204 204 204 204 204 204 204 204 204 204 204 204 204 204 204 51 51 51 51 51 51 51 51 51 51 51 51 51 51 51 51 51 51 51 51 51 204 204 204 204 204 204 204 204 204 204 204 204 204 204 204 204 204 204 204 204 204 51 51 51 51 51 51 51 51 51 51 51 51 51 51 51 51 51 51 51 51 51 204 204 204 204 204 204 204 204 204 204 204 204 204 204 204 204 204 204 204 204 204 51 51 51 51 51 51 51 51 51 51 51 51 51 51 51 
51 51 51 51 51 51 204 204 204 204 204 204 204 204 204 204 204 204 204 204 204 204 204 204 204 204 204 51 51 51 51 51 51 51 51 51 51 51 51 51 51 51 51 51 51 51 51 51 204 204 204 204 204 204 204 204 204 204 204 204 204 204 204 204 204 204 204 204 204 51 51 51 51 51 51 51 51 51 51 51 51 51 51 51 51 51 51 51 51 51 204 204 204 204 204 204 204 204 204 204 204 204 204 204 204 204 204 204 204 204 204 51 51 51 51 51 51 51 51 51 51 51 51 51 51 51 51 51 51 51 51 51 204 204 204 204 204 204 204 204 204 204 204 204 204 204 204 204 204 204 
204 204 204 51 51 51 51 51 51 51 51 51 51 51 51 51 51 51 51 51 51 51 51 51 204 204 204 204 204 204 204 204 204 204 204 204 204 204 204 204 204 204 204 204 204 51 51 51 51 51 51 51 51 51 51 51 51 51 51 51 51 51 51 51 51 51 204 204 204 204 204 204 204 204 204 204 204 204 204 204 204 204 204 204 204 204 204 51 51 51 51 51 51 51 51 51 51 51 51 51 51 51 51 51 51 51 51 51 204 204 204 204 204 204 204 204 204 204 204 204 204 204 204 204 204 204 204 204 204 51 51 51 51 51 51 51 51 51 51 51 51 51 51 51 51 51 51 51 51 51 
204 204 204 204 204 204 204 204 204 204 204 204 204 204 204 204 204 204 204 204 204 51 51 51 51 51 51 51 51 51 51 51 51 51 51 51 51 51 51 51 51 51 204 204 204 204 204 204 204 204 204 204 204 204 204 204 204 204 204 204 204 204 204 51 51 51 51 51 51 51 51 51 51 51 51 51 51 51 51 51 51 51 51 51 204 204 204 204 204 204 204 204 204 204 204 204 204 204 204 204 204 204 204 204 204 51 51 51 51 51 51 51 51 51 51 51 51 51 51 51 51 51 51 51 51 51 204 204 204 204 204 204 204 204 204 204 204 204 204 204 204 204 204 204 204 204 204 51 51 51 
51 51 51 51 51 51 51 51 51 51 51 51 51 51 51 51 51 51 204 204 204 204 204 204 204 204 204 204 204 204 204 204 204 204 204 204 204 204 204 51 51 51 51 51 51 51 51 51 51 51 51 51 51 51 51 51 51 51 51 51 204 204 204 204 204 204 204 204 204 204 204 204 204 204 204 204 204 204 204 204 204 51 51 51 51 51 51 51 51 51 51 51 51 51 51 51 51 51 51 51 51 51 204 204 204 204 204 204 204 204 204 204 204 204 204 204 204 204 204 204 204 204 204 51 51 51 51 51 51 51 51 51 51 51 51 51 51 51 51 51 51 51 51 51 204 204 204 204 204 204 
204 204 204 204 204 204 204 204 204 204 204 204 204 204 204 51 51 51 51 51 51 51 51 51 51 51 51 51 51 51 51 51 51 51 51 51 204 204 204 204 204 204 204 204 204 204 204 204 204 204 204 204 204 204 204 204 204 51 51 51 51 51 51 51 51 51 51 51 51 51 51 51 51 51 51 51 51 51 204 204 204 204 204 204 204 204 204 204 204 204 204 204 204 204 204 204 204 204 204 51 51 51 51 51 51 51 51 51 51 51 51 51 51 51 51 51 51 51 51 51 204 204 204 204 204 204 204 204 204 204 204 204 204 204 204 204 204 204 204 204 204 51 51 51 51 51 51 51 51 51 
51 51 51 51 51 51 51 51 51 51 51 51 204 204 204 204 204 204 204 204 204 204 204 204 204 204 204 204 204 204 204 204 204 51 51 51 51 51 51 51 51 51 51 51 51 51 51 51 51 51 51 51 51 51 204 204 204 204 204 204 204 204 204 204 204 204 204 204 204 204 204 204 204 204 204 51 51 51 51 51 51 51 51 51 51 51 51 51 51 51 51 51 51 51 51 51 204 204 204 204 204 204 204 204 204 204 204 204 204 204 204 204 204 204 204 204 204 51 51 51 51 51 51 51 51 51 51 51 51 51 51 51 51 51 51 51 51 51 204 204 204 204 204 204 204 204 204 204 204 204 
51 51 51 51 51 51 51 51 51 204 204 204 204 204 204 204 204 204 204 204 204 204 204 204 204 204 204 204 204 204 51 51 51 51 51 51 51 51 51 51 51 51 51 51 51 51 51 51 51 51 51 204 204 204 204 204 204 204 204 204 204 204 204 204 204 204 204 204 204 204 204 204 51 51 51 51 51 51 51 51 51 51 51 51 51 51 51 51 51 51 51 51 51 204 204 204 204 204 204 204 204 204 204 204 204 204 204 204 204 204 204 204 204 204 51 51 51 51 51 51 51 51 51 51 51 51 51 51 51 51 51 51 51 51 51 204 204 204 204 204 204 204 204 204 204 204 204 204 204 204 
204 204 204 204 204 204 51 51 51 51 51 51 51 51 51 51 51 51 51 51 51 51 51 51 51 51 51 204 204 204 204 204 204 204 204 204 204 204 204 204 204 204 204 204 204 204 204 204 51 51 51 51 51 51 51 51 51 51 51 51 51 51 51 51 51 51 51 51 51 204 204 204 204 204 204 204 204 204 204 204 204 204 204 204 204 204 204 204 204 204 51 51 51 51 51 51 51 51 51 51 51 51 51 51 51 51 51 51 51 51 51 204 204 204 204 204 204 204 204 204 204 204 204 204 204 204 204 204 204 204 204 204 51 51 51 51 51 51 51 51 51 51 51 51 51 51 51 51 51 51 
51 51 51 204 204 204 204 204 204 204 204 204 204 204 204 204 204 204 204 204 204 204 204 204 51 51 51 51 51 51 51 51 51 51 51 51 51 51 51 51 51 51 51 51 51 204 204 204 204 204 204 204 204 204 204 204 204 204 204 204 204 204 204 204 204 204 51 51 51 51 51 51 51 51 51 51 51 51 51 51 51 51 51 51 51 51 51 204 204 204 204 204 204 204 204 204 204 204 204 204 204 204 204 204 204 204 204 204 51 51 51 51 51 51 51 51 51 51 51 51 51 51 51 51 51 51 51 51 51 204 204 204 204 204 204 204 204 204 204 204 204 204 204 204 204 204 204 204 204 204 
51 51 51 51 51 51 51 51 51 51 51 51 51 51 51 51 51 51 51 51 51 204 204 204 204 204 204 204 204 204 204 204 204 204 204 204 204 204 204 204 204 204 51 51 51 51 51 51 51 51 51 51 51 51 51 51 51 51 51 51 51 51 51 204 204 204 204 204 204 204 204 204 204 204 204 204 204 204 204 204 204 204 204 204 51 51 51 51 51 51 51 51 51 51 51 51 51 51 51 51 51 51 51 51 51 204 204 204 204 204 204 204 204 204 204 204 204 204 204 204 204 204 204 204 204 204 51 51 51 51 51 51 51 51 51 51 51 51 51 51 51 51 51 51 51 51 51 204 204 204 
204 204 204 204 204 204 204 204 204 204 204 204 204 204 204 204 204 204 51 51 51 51 51 51 51 51 51 51 51 51 51 51 51 51 51 51 51 51 51 204 204 204 204 204 204 204 204 204 204 204 204 204 204 204 204 204 204 204 204 204 51 51 51 51 51 51 51 51 51 51 51 51 51 51 51 51 51 51 51 51 51 204 204 204 204 204 204 204 204 204 204 204 204 204 204 204 204 204 204 204 204 204 51 51 51 51 51 51 51 51 51 51 51 51 51 51 51 51 51 51 51 51 51 204 204 204 204 204 204 204 204 204 204 204 204 204 204 204 204 204 204 204 204 204 51 51 51 51 51 51 
51 51 51 51 51 51 51 51 51 51 51 51 51 51 51 204 204 204 204 204 204 204 204 204 204 204 204 204 204 204 204 204 204 204 204 204 51 51 51 51 51 51 51 51 51 51 51 51 51 51 51 51 51 51 51 51 51 204 204 204 204 204 204 204 204 204 204 204 204 204 204 204 204 204 204 204 204 204 51 51 51 51 51 51 51 51 51 51 51 51 51 51 51 51 51 51 51 51 51 204 204 204 204 204 204 204 204 204 204 204 204 204 204 204 204 204 204 204 204 204 51 51 51 51 51 51 51 51 51 51 51 51 51 51 51 51 51 51 51 51 51 204 204 204 204 204 204 204 204 204 
204 204 204 204 204 204 204 204 204 204 204 204 51 51 51 51 51 51 51 51 51 51 51 51 51 51 51 51 51 51 51 51 51 204 204 204 204 204 204 204 204 204 204 204 204 204 204 204 204 204 204 204 204 204 51 51 51 51 51 51 51 51 51 51 51 51 51 51 51 51 51 51 51 51 51 204 204 204 204 204 204 204 204 204 204 204 204 204 204 204 204 204 204 204 204 204 51 51 51 51 51 51 51 51 51 51 51 51 51 51 51 51 51 51 51 51 51 204 204 204 204 204 204 204 204 204 204 204 204 204 204 204 204 204 204 204 204 204 51 51 51 51 51 51 51 51 51 51 51 51 
