P3
70 50
255
128 128 0 0 0 0 0 0 0 0 0 0 0 0 0 0 0 0 0 0 0 0 0 0 0 0 0 0 0 0 0 0 0 0 0 0 0 0 0 0 0 0 0 0 0 0 0 0 0 0 0 0 0 0 0 0 0 0 0 0 0 0 0 0 0 0 0 0 0 0 0 0 0 0 0 0 0 0 0 0 0 0 0 0 0 0 0 0 0 0 0 0 0 0 0 0 0 0 0 0 0 0 0 0 0 0 0 0 0 0 0 0 0 0 0 0 0 0 0 0 0 0 0 0 0 0 0 0 0 0 0 0 0 0 0 0 0 0 0 0 0 0 0 0 0 0 0 0 0 0 
0 0 0 0 0 0 0 0 0 0 0 0 0 0 0 0 0 0 0 0 0 0 0 0 0 0 0 0 0 0 0 0 0 0 0 0 0 0 0 0 0 0 0 0 0 0 0 0 0 0 0 0 0 0 0 0 0 0 0 0 128 128 0 128 128 0 0 0 0 0 0 0 0 0 0 0 0 0 0 0 0 0 0 0 0 0 0 0 0 0 0 0 0 0 0 0 0 0 0 0 0 0 0 0 0 0 0 0 0 0 0 0 0 0 0 0 0 0 0 0 0 0 0 0 0 0 0 0 0 0 0 0 0 0 0 0 0 0 0 0 0 0 0 0 0 0 0 0 0 0 
0 0 0 0 0 0 0 0 0 0 0 0 0 0 0 0 0 0 0 0 0 0 0 0 0 0 0 0 0 0 0 0 0 0 0 0 0 0 0 0 0 0 0 0 0 0 0 0 0 0 0 0 0 0 0 0 0 0 0 0 0 0 0 0 0 0 0 0 0 0 0 0 0 0 0 0 0 0 0 0 0 0 0 0 0 0 0 0 0 0 0 0 0 0 0 0 0 0 0 0 0 0 0 0 0 0 0 0 0 0 0 0 0 0 0 0 0 0 0 0 128 128 0 128 128 0 128 128 0 0 0 0 0 0 0 0 0 0 0 0 0 0 0 0 0 0 0 0 0 0 
0 0 0 0 0 0 0 0 0 0 0 0 0 0 0 0 0 0 0 0 0 0 0 0 0 0 0 0 0 0 0 0 0 0 0 0 0 0 0 0 0 0 0 0 0 0 0 0 0 0 0 0 0 0 0 0 0 0 0 0 0 0 0 0 0 0 0 0 0 0 0 0 0 0 0 0 0 0 0 0 0 0 0 0 0 0 0 0 0 0 0 0 0 0 0 0 0 0 0 0 0 0 0 0 0 0 0 0 0 0 0 0 0 0 0 0 0 0 0 0 0 0 0 0 0 0 0 0 0 0 0 0 0 0 0 0 0 0 0 0 0 0 0 0 0 0 0 0 0 0 
0 0 0 0 0 0 0 0 0 0 0 0 0 0 0 0 0 0 0 0 0 0 0 0 0 0 0 0 0 0 128 128 0 128 128 0 128 128 0 128 128 0 0 0 0 0 0 0 0 0 0 0 0 0 0 0 0 0 0 0 0 0 0 0 0 0 0 0 0 0 0 0 0 0 0 0 0 0 0 0 0 0 0 0 0 0 0 0 0 0 0 0 0 0 0 0 0 0 0 0 0 0 0 0 0 0 0 0 0 0 0 0 0 0 0 0 0 0 0 0 0 0 0 0 0 0 0 0 0 0 0 0 0 0 0 0 0 0 0 0 0 0 0 0 0 0 0 0 0 0 
0 0 0 0 0 0 0 0 0 0 0 0 0 0 0 0 0 0 0 0 0 0 0 0 0 0 0 0 0 0 0 0 0 0 0 0 0 0 0 0 0 0 0 0 0 0 0 0 0 0 0 0 0 0 0 0 0 0 0 0 0 0 0 0 0 0 0 0 0 0 0 0 0 0 0 0 0 0 0 0 0 0 0 0 0 0 0 0 0 0 128 128 0 128 128 0 128 128 0 128 128 0 128 128 0 0 0 0 0 0 0 0 0 0 0 0 0 0 0 0 0 0 0 0 0 0 0 0 0 0 0 0 0 0 0 0 0 0 0 0 0 0 0 0 0 0 0 0 0 0 
0 0 0 0 0 0 0 0 0 0 0 0 0 0 0 0 0 0 0 0 0 0 0 0 0 0 0 0 0 0 0 0 0 0 0 0 0 0 0 0 0 0 0 0 0 0 0 0 0 0 0 0 0 0 0 0 0 0 0 0 0 0 0 0 0 0 0 0 0 0 0 0 0 0 0 0 0 0 0 0 0 0 0 0 0 0 0 0 0 0 0 0 0 0 0 0 0 0 0 0 0 0 0 0 0 0 0 0 0 0 0 0 0 0 0 0 0 0 0 0 0 0 0 0 0 0 0 0 0 0 0 0 0 0 0 0 0 0 0 0 0 0 0 0 0 0 0 0 0 0 
128 128 0 128 128 0 128 128 0 128 128 0 128 128 0 128 128 0 0 0 0 0 0 0 0 0 0 0 0 0 0 0 0 0 0 0 0 0 0 0 0 0 0 0 0 0 0 0 0 0 0 0 0 0 0 0 0 0 0 0 0 0 0 0 0 0 0 0 0 0 0 0 0 0 0 0 0 0 0 0 0 0 0 0 0 0 0 0 0 0 0 0 0 0 0 0 0 0 0 0 0 0 0 0 0 0 0 0 0 0 0 0 0 0 0 0 0 0 0 0 0 0 0 0 0 0 0 0 0 0 0 0 0 0 0 0 0 0 0 0 0 0 0 0 0 0 0 0 0 0 
0 0 0 0 0 0 0 0 0 0 0 0 0 0 0 0 0 0 0 0 0 0 0 0 0 0 0 0 0 0 0 0 0 0 0 0 0 0 0 0 0 0 0 0 0 0 0 0 0 0 0 0 0 0 0 0 0 0 0 0 128 128 0 128 128 0 128 128 0 128 128 0 128 128 0 128 128 0 128 128 0 0 0 0 0 0 0 0 0 0 0 0 0 0 0 0 0 0 0 0 0 0 0 0 0 0 0 0 0 0 0 0 0 0 0 0 0 0 0 0 0 0 0 0 0 0 0 0 0 0 0 0 0 0 0 0 0 0 0 0 0 0 0 0 0 0 0 0 0 0 
0 0 0 0 0 0 0 0 0 0 0 0 0 0 0 0 0 0 0 0 0 0 0 0 0 0 0 0 0 0 0 0 0 0 0 0 0 0 0 0 0 0 0 0 0 0 0 0 0 0 0 0 0 0 0 0 0 0 0 0 0 0 0 0 0 0 0 0 0 0 0 0 0 0 0 0 0 0 0 0 0 0 0 0 0 0 0 0 0 0 0 0 0 0 0 0 0 0 0 0 0 0 0 0 0 0 0 0 0 0 0 0 0 0 0 0 0 0 0 0 128 128 0 128 128 0 128 128 0 128 128 0 128 128 0 128 128 0 128 128 0 128 128 0 0 0 0 0 0 0 
0 0 0 0 0 0 0 0 0 0 0 0 0 0 0 0 0 0 0 0 0 0 0 0 0 0 0 0 0 0 0 0 0 0 0 0 0 0 0 0 0 0 0 0 0 0 0 0 0 0 0 0 0 0 0 0 0 0 0 0 0 0 0 0 0 0 0 0 0 0 0 0 0 0 0 0 0 0 0 0 0 0 0 0 0 0 0 0 0 0 0 0 0 0 0 0 0 0 0 0 0 0 0 0 0 0 0 0 0 0 0 0 0 0 0 0 0 0 0 0 0 0 0 0 0 0 0 0 0 0 0 0 0 0 0 0 0 0 0 0 0 0 0 0 0 0 0 0 0 0 
0 0 0 0 0 0 0 0 0 0 0 0 0 0 0 0 0 0 0 0 0 0 0 0 0 0 0 0 0 0 128 128 0 128 128 0 128 128 0 128 128 0 128 128 0 128 128 0 128 128 0 128 128 0 128 128 0 0 0 0 0 0 0 0 0 0 0 0 0 0 0 0 0 0 0 0 0 0 0 0 0 0 0 0 0 0 0 0 0 0 0 0 0 0 0 0 0 0 0 0 0 0 0 0 0 0 0 0 0 0 0 0 0 0 0 0 0 0 0 0 0 0 0 0 0 0 0 0 0 0 0 0 0 0 0 0 0 0 0 0 0 0 0 0 0 0 0 0 0 0 
0 0 0 0 0 0 0 0 0 0 0 0 0 0 0 0 0 0 0 0 0 0 0 0 0 0 0 0 0 0 0 0 0 0 0 0 0 0 0 0 0 0 0 0 0 0 0 0 0 0 0 0 0 0 0 0 0 0 0 0 0 0 0 0 0 0 0 0 0 0 0 0 0 0 0 0 0 0 0 0 0 0 0 0 0 0 0 0 0 0 128 128 0 128 128 0 128 128 0 128 128 0 128 128 0 128 128 0 128 128 0 128 128 0 128 128 0 128 128 0 0 0 0 0 0 0 0 0 0 0 0 0 0 0 0 0 0 0 0 0 0 0 0 0 0 0 0 0 0 0 
0 0 0 0 0 0 0 0 0 0 0 0 0 0 0 0 0 0 0 0 0 0 0 0 0 0 0 0 0 0 0 0 0 0 0 0 0 0 0 0 0 0 0 0 0 0 0 0 0 0 0 0 0 0 0 0 0 0 0 0 0 0 0 0 0 0 0 0 0 0 0 0 0 0 0 0 0 0 0 0 0 0 0 0 0 0 0 0 0 0 0 0 0 0 0 0 0 0 0 0 0 0 0 0 0 0 0 0 0 0 0 0 0 0 0 0 0 0 0 0 0 0 0 0 0 0 0 0 0 0 0 0 0 0 0 0 0 0 0 0 0 0 0 0 0 0 0 0 0 0 
128 128 0 128 128 0 128 128 0 128 128 0 128 128 0 128 128 0 128 128 0 128 128 0 128 128 0 128 128 0 128 128 0 0 0 0 0 0 0 0 0 0 0 0 0 0 0 0 0 0 0 0 0 0 0 0 0 0 0 0 0 0 0 0 0 0 0 0 0 0 0 0 0 0 0 0 0 0 0 0 0 0 0 0 0 0 0 0 0 0 0 0 0 0 0 0 0 0 0 0 0 0 0 0 0 0 0 0 0 0 0 0 0 0 0 0 0 0 0 0 0 0 0 0 0 0 0 0 0 0 0 0 0 0 0 0 0 0 0 0 0 0 0 0 0 0 0 0 0 0 
0 0 0 0 0 0 0 0 0 0 0 0 0 0 0 0 0 0 0 0 0 0 0 0 0 0 0 0 0 0 0 0 0 0 0 0 0 0 0 0 0 0 0 0 0 0 0 0 0 0 0 0 0 0 0 0 0 0 0 0 128 128 0 128 128 0 128 128 0 128 128 0 128 128 0 128 128 0 128 128 0 128 128 0 128 128 0 128 128 0 128 128 0 128 128 0 0 0 0 0 0 0 0 0 0 0 0 0 0 0 0 0 0 0 0 0 0 0 0 0 0 0 0 0 0 0 0 0 0 0 0 0 0 0 0 0 0 0 0 0 0 0 0 0 0 0 0 0 0 0 
0 0 0 0 0 0 0 0 0 0 0 0 0 0 0 0 0 0 0 0 0 0 0 0 0 0 0 0 0 0 0 0 0 0 0 0 0 0 0 0 0 0 0 0 0 0 0 0 0 0 0 0 0 0 0 0 0 0 0 0 0 0 0 0 0 0 0 0 0 0 0 0 0 0 0 0 0 0 0 0 0 0 0 0 0 0 0 0 0 0 0 0 0 0 0 0 0 0 0 0 0 0 0 0 0 0 0 0 0 0 0 0 0 0 0 0 0 0 0 0 128 128 0 128 128 0 128 128 0 128 128 0 128 128 0 128 128 0 128 128 0 128 128 0 128 128 0 128 128 0 
128 128 0 128 128 0 128 128 0 0 0 0 0 0 0 0 0 0 0 0 0 0 0 0 0 0 0 0 0 0 0 0 0 0 0 0 0 0 0 0 0 0 0 0 0 0 0 0 0 0 0 0 0 0 0 0 0 0 0 0 0 0 0 0 0 0 0 0 0 0 0 0 0 0 0 0 0 0 0 0 0 0 0 0 0 0 0 0 0 0 0 0 0 0 0 0 0 0 0 0 0 0 0 0 0 0 0 0 0 0 0 0 0 0 0 0 0 0 0 0 0 0 0 0 0 0 0 0 0 0 0 0 0 0 0 0 0 0 0 0 0 0 0 0 0 0 0 0 0 0 
0 0 0 0 0 0 0 0 0 0 0 0 0 0 0 0 0 0 0 0 0 0 0 0 0 0 0 0 0 0 128 128 0 128 128 0 128 128 0 128 128 0 128 128 0 128 128 0 128 128 0 128 128 0 128 128 0 128 128 0 128 128 0 128 128 0 128 128 0 128 128 0 0 0 0 0 0 0 0 0 0 0 0 0 0 0 0 0 0 0 0 0 0 0 0 0 0 0 0 0 0 0 0 0 0 0 0 0 0 0 0 0 0 0 0 0 0 0 0 0 0 0 0 0 0 0 0 0 0 0 0 0 0 0 0 0 0 0 0 0 0 0 0 0 0 0 0 0 0 0 
0 0 0 0 0 0 0 0 0 0 0 0 0 0 0 0 0 0 0 0 0 0 0 0 0 0 0 0 0 0 0 0 0 0 0 0 0 0 0 0 0 0 0 0 0 0 0 0 0 0 0 0 0 0 0 0 0 0 0 0 0 0 0 0 0 0 0 0 0 0 0 0 0 0 0 0 0 0 0 0 0 0 0 0 0 0 0 0 0 0 128 128 0 128 128 0 128 128 0 128 128 0 128 128 0 128 128 0 128 128 0 128 128 0 128 128 0 128 128 0 128 128 0 128 128 0 128 128 0 128 128 0 128 128 0 0 0 0 0 0 0 0 0 0 0 0 0 0 0 0 
0 0 0 0 0 0 0 0 0 0 0 0 0 0 0 0 0 0 0 0 0 0 0 0 0 0 0 0 0 0 0 0 0 0 0 0 0 0 0 0 0 0 0 0 0 0 0 0 0 0 0 0 0 0 0 0 0 0 0 0 0 0 0 0 0 0 0 0 0 0 0 0 0 0 0 0 0 0 0 0 0 0 0 0 0 0 0 0 0 0 0 0 0 0 0 0 0 0 0 0 0 0 0 0 0 0 0 0 0 0 0 0 0 0 0 0 0 0 0 0 0 0 0 0 0 0 0 0 0 0 0 0 0 0 0 0 0 0 0 0 0 0 0 0 0 0 0 0 0 0 
128 128 0 128 128 0 128 128 0 128 128 0 128 128 0 128 128 0 128 128 0 128 128 0 128 128 0 128 128 0 128 128 0 128 128 0 128 128 0 128 128 0 128 128 0 128 128 0 0 0 0 0 0 0 0 0 0 0 0 0 0 0 0 0 0 0 0 0 0 0 0 0 0 0 0 0 0 0 0 0 0 0 0 0 0 0 0 0 0 0 0 0 0 0 0 0 0 0 0 0 0 0 0 0 0 0 0 0 0 0 0 0 0 0 0 0 0 0 0 0 0 0 0 0 0 0 0 0 0 0 0 0 0 0 0 0 0 0 0 0 0 0 0 0 0 0 0 0 0 0 
0 0 0 0 0 0 0 0 0 0 0 0 0 0 0 0 0 0 0 0 0 0 0 0 0 0 0 0 0 0 0 0 0 0 0 0 0 0 0 0 0 0 0 0 0 0 0 0 0 0 0 0 0 0 0 0 0 0 0 0 128 128 0 128 128 0 128 128 0 128 128 0 128 128 0 128 128 0 128 128 0 128 128 0 128 128 0 128 128 0 128 128 0 128 128 0 128 128 0 128 128 0 128 128 0 128 128 0 128 128 0 0 0 0 0 0 0 0 0 0 0 0 0 0 0 0 0 0 0 0 0 0 0 0 0 0 0 0 0 0 0 0 0 0 0 0 0 0 0 0 
0 0 0 0 0 0 0 0 0 0 0 0 0 0 0 0 0 0 0 0 0 0 0 0 0 0 0 0 0 0 0 0 0 0 0 0 0 0 0 0 0 0 0 0 0 0 0 0 0 0 0 0 0 0 0 0 0 0 0 0 0 0 0 0 0 0 0 0 0 0 0 0 0 0 0 0 0 0 0 0 0 0 0 0 0 0 0 0 0 0 0 0 0 0 0 0 0 0 0 0 0 0 0 0 0 0 0 0 0 0 0 0 0 0 0 0 0 0 0 0 128 128 0 128 128 0 128 128 0 128 128 0 128 128 0 128 128 0 128 128 0 128 128 0 128 128 0 128 128 0 
128 128 0 128 128 0 128 128 0 128 128 0 128 128 0 128 128 0 128 128 0 128 128 0 0 0 0 0 0 0 0 0 0 0 0 0 0 0 0 0 0 0 0 0 0 0 0 0 0 0 0 0 0 0 0 0 0 0 0 0 0 0 0 0 0 0 0 0 0 0 0 0 0 0 0 0 0 0 0 0 0 0 0 0 0 0 0 0 0 0 0 0 0 0 0 0 0 0 0 0 0 0 0 0 0 0 0 0 0 0 0 0 0 0 0 0 0 0 0 0 0 0 0 0 0 0 0 0 0 0 0 0 0 0 0 0 0 0 0 0 0 0 0 0 0 0 0 0 0 0 
0 0 0 0 0 0 0 0 0 0 0 0 0 0 0 0 0 0 0 0 0 0 0 0 0 0 0 0 0 0 128 128 0 128 128 0 128 128 0 128 128 0 128 128 0 128 128 0 128 128 0 128 128 0 128 128 0 128 128 0 128 128 0 128 128 0 128 128 0 128 128 0 128 128 0 128 128 0 128 128 0 128 128 0 128 128 0 0 0 0 0 0 0 0 0 0 0 0 0 0 0 0 0 0 0 0 0 0 0 0 0 0 0 0 0 0 0 0 0 0 0 0 0 0 0 0 0 0 0 0 0 0 0 0 0 0 0 0 0 0 0 0 0 0 0 0 0 0 0 0 
0 0 0 0 0 0 0 0 0 0 0 0 0 0 0 0 0 0 0 0 0 0 0 0 0 0 0 0 0 0 0 0 0 0 0 0 0 0 0 0 0 0 0 0 0 0 0 0 0 0 0 0 0 0 0 0 0 0 0 0 0 0 0 0 0 0 0 0 0 0 0 0 0 0 0 0 0 0 0 0 0 0 0 0 0 0 0 0 0 0 128 128 0 128 128 0 128 128 0 128 128 0 128 128 0 128 128 0 128 128 0 128 128 0 128 128 0 128 128 0 128 128 0 128 128 0 128 128 0 128 128 0 128 128 0 128 128 0 128 128 0 128 128 0 128 128 0 128 128 0 
0 0 0 0 0 0 0 0 0 0 0 0 0 0 0 0 0 0 0 0 0 0 0 0 0 0 0 0 0 0 0 0 0 0 0 0 0 0 0 0 0 0 0 0 0 0 0 0 0 0 0 0 0 0 0 0 0 0 0 0 0 0 0 0 0 0 0 0 0 0 0 0 0 0 0 0 0 0 0 0 0 0 0 0 0 0 0 0 0 0 0 0 0 0 0 0 0 0 0 0 0 0 0 0 0 0 0 0 0 0 0 0 0 0 0 0 0 0 0 0 0 0 0 0 0 0 0 0 0 0 0 0 0 0 0 0 0 0 0 0 0 0 0 0 0 0 0 0 0 0 
128 128 0 128 128 0 128 128 0 128 128 0 128 128 0 128 128 0 128 128 0 128 128 0 128 128 0 128 128 0 128 128 0 128 128 0 128 128 0 128 128 0 128 128 0 128 128 0 128 128 0 128 128 0 128 128 0 128 128 0 128 128 0 0 0 0 0 0 0 0 0 0 0 0 0 0 0 0 0 0 0 0 0 0 0 0 0 0 0 0 0 0 0 0 0 0 0 0 0 0 0 0 0 0 0 0 0 0 0 0 0 0 0 0 0 0 0 0 0 0 0 0 0 0 0 0 0 0 0 0 0 0 0 0 0 0 0 0 0 0 0 0 0 0 0 0 0 0 0 0 
0 0 0 0 0 0 0 0 0 0 0 0 0 0 0 0 0 0 0 0 0 0 0 0 0 0 0 0 0 0 0 0 0 0 0 0 0 0 0 0 0 0 0 0 0 0 0 0 0 0 0 0 0 0 0 0 0 0 0 0 128 128 0 128 128 0 128 128 0 128 128 0 128 128 0 128 128 0 128 128 0 128 128 0 128 128 0 128 128 0 128 128 0 128 128 0 128 128 0 128 128 0 128 128 0 128 128 0 128 128 0 128 128 0 128 128 0 128 128 0 128 128 0 128 128 0 0 0 0 0 0 0 0 0 0 0 0 0 0 0 0 0 0 0 0 0 0 0 0 0 
0 0 0 0 0 0 0 0 0 0 0 0 0 0 0 0 0 0 0 0 0 0 0 0 0 0 0 0 0 0 0 0 0 0 0 0 0 0 0 0 0 0 0 0 0 0 0 0 0 0 0 0 0 0 0 0 0 0 0 0 0 0 0 0 0 0 0 0 0 0 0 0 0 0 0 0 0 0 0 0 0 0 0 0 0 0 0 0 0 0 0 0 0 0 0 0 0 0 0 0 0 0 0 0 0 0 0 0 0 0 0 0 0 0 0 0 0 0 0 0 128 128 0 128 128 0 128 128 0 128 128 0 128 128 0 128 128 0 128 128 0 128 128 0 128 128 0 128 128 0 
128 128 0 128 128 0 128 128 0 128 128 0 128 128 0 128 128 0 128 128 0 128 128 0 128 128 0 128 128 0 128 128 0 128 128 0 128 128 0 0 0 0 0 0 0 0 0 0 0 0 0 0 0 0 0 0 0 0 0 0 0 0 0 0 0 0 0 0 0 0 0 0 0 0 0 0 0 0 0 0 0 0 0 0 0 0 0 0 0 0 0 0 0 0 0 0 0 0 0 0 0 0 0 0 0 0 0 0 0 0 0 0 0 0 0 0 0 0 0 0 0 0 0 0 0 0 0 0 0 0 0 0 0 0 0 0 0 0 0 0 0 0 0 0 0 0 0 0 0 0 
0 0 0 0 0 0 0 0 0 0 0 0 0 0 0 0 0 0 0 0 0 0 0 0 0 0 0 0 0 0 128 128 0 128 128 0 128 128 0 128 128 0 128 128 0 128 128 0 128 128 0 128 128 0 128 128 0 128 128 0 128 128 0 128 128 0 128 128 0 128 128 0 128 128 0 128 128 0 128 128 0 128 128 0 128 128 0 128 128 0 128 128 0 128 128 0 128 128 0 128 128 0 0 0 0 0 0 0 0 0 0 0 0 0 0 0 0 0 0 0 0 0 0 0 0 0 0 0 0 0 0 0 0 0 0 0 0 0 0 0 0 0 0 0 0 0 0 0 0 0 
0 0 0 0 0 0 0 0 0 0 0 0 0 0 0 0 0 0 0 0 0 0 0 0 0 0 0 0 0 0 0 0 0 0 0 0 0 0 0 0 0 0 0 0 0 0 0 0 0 0 0 0 0 0 0 0 0 0 0 0 0 0 0 0 0 0 0 0 0 0 0 0 0 0 0 0 0 0 0 0 0 0 0 0 0 0 0 0 0 0 128 128 0 128 128 0 128 128 0 128 128 0 128 128 0 128 128 0 128 128 0 128 128 0 128 128 0 128 128 0 128 128 0 128 128 0 128 128 0 128 128 0 128 128 0 128 128 0 128 128 0 128 128 0 128 128 0 128 128 0 
128 128 0 128 128 0 128 128 0 128 128 0 128 128 0 0 0 0 0 0 0 0 0 0 0 0 0 0 0 0 0 0 0 0 0 0 0 0 0 0 0 0 0 0 0 0 0 0 0 0 0 0 0 0 0 0 0 0 0 0 0 0 0 0 0 0 0 0 0 0 0 0 0 0 0 0 0 0 0 0 0 0 0 0 0 0 0 0 0 0 0 0 0 0 0 0 0 0 0 0 0 0 0 0 0 0 0 0 0 0 0 0 0 0 0 0 0 0 0 0 0 0 0 0 0 0 0 0 0 0 0 0 0 0 0 0 0 0 0 0 0 0 0 0 0 0 0 0 0 0 
128 128 0 128 128 0 128 128 0 128 128 0 128 128 0 128 128 0 128 128 0 128 128 0 128 128 0 128 128 0 128 128 0 128 128 0 128 128 0 128 128 0 128 128 0 128 128 0 128 128 0 128 128 0 128 128 0 128 128 0 128 128 0 128 128 0 128 128 0 128 128 0 128 128 0 128 128 0 0 0 0 0 0 0 0 0 0 0 0 0 0 0 0 0 0 0 0 0 0 0 0 0 0 0 0 0 0 0 0 0 0 0 0 0 0 0 0 0 0 0 0 0 0 0 0 0 0 0 0 0 0 0 0 0 0 0 0 0 0 0 0 0 0 0 0 0 0 0 0 0 
0 0 0 0 0 0 0 0 0 0 0 0 0 0 0 0 0 0 0 0 0 0 0 0 0 0 0 0 0 0 0 0 0 0 0 0 0 0 0 0 0 0 0 0 0 0 0 0 0 0 0 0 0 0 0 0 0 0 0 0 128 128 0 128 128 0 128 128 0 128 128 0 128 128 0 128 128 0 128 128 0 128 128 0 128 128 0 128 128 0 128 128 0 128 128 0 128 128 0 128 128 0 128 128 0 128 128 0 128 128 0 128 128 0 128 128 0 128 128 0 128 128 0 128 128 0 128 128 0 128 128 0 128 128 0 128 128 0 128 128 0 0 0 0 0 0 0 0 0 0 
0 0 0 0 0 0 0 0 0 0 0 0 0 0 0 0 0 0 0 0 0 0 0 0 0 0 0 0 0 0 0 0 0 0 0 0 0 0 0 0 0 0 0 0 0 0 0 0 0 0 0 0 0 0 0 0 0 0 0 0 0 0 0 0 0 0 0 0 0 0 0 0 0 0 0 0 0 0 0 0 0 0 0 0 0 0 0 0 0 0 0 0 0 0 0 0 0 0 0 0 0 0 0 0 0 0 0 0 0 0 0 0 0 0 0 0 0 0 0 0 128 128 0 128 128 0 128 128 0 128 128 0 128 128 0 128 128 0 128 128 0 128 128 0 128 128 0 128 128 0 
128 128 0 128 128 0 128 128 0 128 128 0 128 128 0 128 128 0 128 128 0 128 128 0 128 128 0 128 128 0 128 128 0 128 128 0 128 128 0 128 128 0 128 128 0 128 128 0 128 128 0 128 128 0 0 0 0 0 0 0 0 0 0 0 0 0 0 0 0 0 0 0 0 0 0 0 0 0 0 0 0 0 0 0 0 0 0 0 0 0 0 0 0 0 0 0 0 0 0 0 0 0 0 0 0 0 0 0 0 0 0 0 0 0 0 0 0 0 0 0 0 0 0 0 0 0 0 0 0 0 0 0 0 0 0 0 0 0 0 0 0 0 0 0 0 0 0 0 0 0 
0 0 0 0 0 0 0 0 0 0 0 0 0 0 0 0 0 0 0 0 0 0 0 0 0 0 0 0 0 0 128 128 0 128 128 0 128 128 0 128 128 0 128 128 0 128 128 0 128 128 0 128 128 0 128 128 0 128 128 0 128 128 0 128 128 0 128 128 0 128 128 0 128 128 0 128 128 0 128 128 0 128 128 0 128 128 0 128 128 0 128 128 0 128 128 0 128 128 0 128 128 0 128 128 0 128 128 0 128 128 0 128 128 0 128 128 0 0 0 0 0 0 0 0 0 0 0 0 0 0 0 0 0 0 0 0 0 0 0 0 0 0 0 0 0 0 0 0 0 0 
0 0 0 0 0 0 0 0 0 0 0 0 0 0 0 0 0 0 0 0 0 0 0 0 0 0 0 0 0 0 0 0 0 0 0 0 0 0 0 0 0 0 0 0 0 0 0 0 0 0 0 0 0 0 0 0 0 0 0 0 0 0 0 0 0 0 0 0 0 0 0 0 0 0 0 0 0 0 0 0 0 0 0 0 0 0 0 0 0 0 128 128 0 128 128 0 128 128 0 128 128 0 128 128 0 128 128 0 128 128 0 128 128 0 128 128 0 128 128 0 128 128 0 128 128 0 128 128 0 128 128 0 128 128 0 128 128 0 128 128 0 128 128 0 128 128 0 128 128 0 
128 128 0 128 128 0 128 128 0 128 128 0 128 128 0 128 128 0 128 128 0 128 128 0 128 128 0 128 128 0 0 0 0 0 0 0 0 0 0 0 0 0 0 0 0 0 0 0 0 0 0 0 0 0 0 0 0 0 0 0 0 0 0 0 0 0 0 0 0 0 0 0 0 0 0 0 0 0 0 0 0 0 0 0 0 0 0 0 0 0 0 0 0 0 0 0 0 0 0 0 0 0 0 0 0 0 0 0 0 0 0 0 0 0 0 0 0 0 0 0 0 0 0 0 0 0 0 0 0 0 0 0 0 0 0 0 0 0 0 0 0 0 0 0 0 0 0 0 0 0 
128 128 0 128 128 0 128 128 0 128 128 0 128 128 0 128 128 0 128 128 0 128 128 0 128 128 0 128 128 0 128 128 0 128 128 0 128 128 0 128 128 0 128 128 0 128 128 0 128 128 0 128 128 0 128 128 0 128 128 0 128 128 0 128 128 0 128 128 0 128 128 0 128 128 0 128 128 0 128 128 0 128 128 0 128 128 0 128 128 0 128 128 0 0 0 0 0 0 0 0 0 0 0 0 0 0 0 0 0 0 0 0 0 0 0 0 0 0 0 0 0 0 0 0 0 0 0 0 0 0 0 0 0 0 0 0 0 0 0 0 0 0 0 0 0 0 0 0 0 0 
0 0 0 0 0 0 0 0 0 0 0 0 0 0 0 0 0 0 0 0 0 0 0 0 0 0 0 0 0 0 0 0 0 0 0 0 0 0 0 0 0 0 0 0 0 0 0 0 0 0 0 0 0 0 0 0 0 0 0 0 128 128 0 128 128 0 128 128 0 128 128 0 128 128 0 128 128 0 128 128 0 128 128 0 128 128 0 128 128 0 128 128 0 128 128 0 128 128 0 128 128 0 128 128 0 128 128 0 128 128 0 128 128 0 128 128 0 128 128 0 128 128 0 128 128 0 128 128 0 128 128 0 128 128 0 128 128 0 128 128 0 128 128 0 128 128 0 128 128 0 
128 128 0 128 128 0 0 0 0 0 0 0 0 0 0 0 0 0 0 0 0 0 0 0 0 0 0 0 0 0 0 0 0 0 0 0 0 0 0 0 0 0 0 0 0 0 0 0 0 0 0 0 0 0 0 0 0 0 0 0 0 0 0 0 0 0 0 0 0 0 0 0 0 0 0 0 0 0 0 0 0 0 0 0 0 0 0 0 0 0 0 0 0 0 0 0 0 0 0 0 0 0 0 0 0 0 0 0 0 0 0 0 0 0 0 0 0 0 0 0 128 128 0 128 128 0 128 128 0 128 128 0 128 128 0 128 128 0 128 128 0 128 128 0 128 128 0 128 128 0 
128 128 0 128 128 0 128 128 0 128 128 0 128 128 0 128 128 0 128 128 0 128 128 0 128 128 0 128 128 0 128 128 0 128 128 0 128 128 0 128 128 0 128 128 0 128 128 0 128 128 0 128 128 0 128 128 0 128 128 0 128 128 0 128 128 0 128 128 0 0 0 0 0 0 0 0 0 0 0 0 0 0 0 0 0 0 0 0 0 0 0 0 0 0 0 0 0 0 0 0 0 0 0 0 0 0 0 0 0 0 0 0 0 0 0 0 0 0 0 0 0 0 0 0 0 0 0 0 0 0 0 0 0 0 0 0 0 0 0 0 0 0 0 0 0 0 0 0 0 0 
0 0 0 0 0 0 0 0 0 0 0 0 0 0 0 0 0 0 0 0 0 0 0 0 0 0 0 0 0 0 128 128 0 128 128 0 128 128 0 128 128 0 128 128 0 128 128 0 128 128 0 128 128 0 128 128 0 128 128 0 128 128 0 128 128 0 128 128 0 128 128 0 128 128 0 128 128 0 128 128 0 128 128 0 128 128 0 128 128 0 128 128 0 128 128 0 128 128 0 128 128 0 128 128 0 128 128 0 128 128 0 128 128 0 128 128 0 128 128 0 128 128 0 128 128 0 128 128 0 128 128 0 0 0 0 0 0 0 0 0 0 0 0 0 0 0 0 0 0 0 
0 0 0 0 0 0 0 0 0 0 0 0 0 0 0 0 0 0 0 0 0 0 0 0 0 0 0 0 0 0 0 0 0 0 0 0 0 0 0 0 0 0 0 0 0 0 0 0 0 0 0 0 0 0 0 0 0 0 0 0 0 0 0 0 0 0 0 0 0 0 0 0 0 0 0 0 0 0 0 0 0 0 0 0 0 0 0 0 0 0 128 128 0 128 128 0 128 128 0 128 128 0 128 128 0 128 128 0 128 128 0 128 128 0 128 128 0 128 128 0 128 128 0 128 128 0 128 128 0 128 128 0 128 128 0 128 128 0 128 128 0 128 128 0 128 128 0 128 128 0 
128 128 0 128 128 0 128 128 0 128 128 0 128 128 0 128 128 0 128 128 0 128 128 0 128 128 0 128 128 0 128 128 0 128 128 0 128 128 0 128 128 0 128 128 0 0 0 0 0 0 0 0 0 0 0 0 0 0 0 0 0 0 0 0 0 0 0 0 0 0 0 0 0 0 0 0 0 0 0 0 0 0 0 0 0 0 0 0 0 0 0 0 0 0 0 0 0 0 0 0 0 0 0 0 0 0 0 0 0 0 0 0 0 0 0 0 0 0 0 0 0 0 0 0 0 0 0 0 0 0 0 0 0 0 0 0 0 0 0 0 0 0 0 0 0 0 0 0 0 0 
128 128 0 128 128 0 128 128 0 128 128 0 128 128 0 128 128 0 128 128 0 128 128 0 128 128 0 128 128 0 128 128 0 128 128 0 128 128 0 128 128 0 128 128 0 128 128 0 128 128 0 128 128 0 128 128 0 128 128 0 128 128 0 128 128 0 128 128 0 128 128 0 128 128 0 128 128 0 128 128 0 128 128 0 128 128 0 128 128 0 128 128 0 128 128 0 128 128 0 128 128 0 128 128 0 128 128 0 0 0 0 0 0 0 0 0 0 0 0 0 0 0 0 0 0 0 0 0 0 0 0 0 0 0 0 0 0 0 0 0 0 0 0 0 0 0 0 0 0 0 
0 0 0 0 0 0 0 0 0 0 0 0 0 0 0 0 0 0 0 0 0 0 0 0 0 0 0 0 0 0 0 0 0 0 0 0 0 0 0 0 0 0 0 0 0 0 0 0 0 0 0 0 0 0 0 0 0 0 0 0 128 128 0 128 128 0 128 128 0 128 128 0 128 128 0 128 128 0 128 128 0 128 128 0 128 128 0 128 128 0 128 128 0 128 128 0 128 128 0 128 128 0 128 128 0 128 128 0 128 128 0 128 128 0 128 128 0 128 128 0 128 128 0 128 128 0 128 128 0 128 128 0 128 128 0 128 128 0 128 128 0 128 128 0 128 128 0 128 128 0 
128 128 0 128 128 0 128 128 0 128 128 0 128 128 0 128 128 0 128 128 0 0 0 0 0 0 0 0 0 0 0 0 0 0 0 0 0 0 0 0 0 0 0 0 0 0 0 0 0 0 0 0 0 0 0 0 0 0 0 0 0 0 0 0 0 0 0 0 0 0 0 0 0 0 0 0 0 0 0 0 0 0 0 0 0 0 0 0 0 0 0 0 0 0 0 0 0 0 0 0 0 0 0 0 0 0 0 0 0 0 0 0 0 0 0 0 0 0 0 0 128 128 0 128 128 0 128 128 0 128 128 0 128 128 0 128 128 0 128 128 0 128 128 0 128 128 0 128 128 0 
128 128 0 128 128 0 128 128 0 128 128 0 128 128 0 128 128 0 128 128 0 128 128 0 128 128 0 128 128 0 128 128 0 128 128 0 128 128 0 128 128 0 128 128 0 128 128 0 128 128 0 128 128 0 128 128 0 128 128 0 128 128 0 128 128 0 128 128 0 128 128 0 128 128 0 128 128 0 128 128 0 128 128 0 0 0 0 0 0 0 0 0 0 0 0 0 0 0 0 0 0 0 0 0 0 0 0 0 0 0 0 0 0 0 0 0 0 0 0 0 0 0 0 0 0 0 0 0 0 0 0 0 0 0 0 0 0 0 0 0 0 0 0 0 0 0 0 0 0 0 
0 0 0 0 0 0 0 0 0 0 0 0 0 0 0 0 0 0 0 0 0 0 0 0 0 0 0 0 0 0 128 128 0 128 128 0 128 128 0 128 128 0 128 128 0 128 128 0 128 128 0 128 128 0 128 128 0 128 128 0 128 128 0 128 128 0 128 128 0 128 128 0 128 128 0 128 128 0 128 128 0 128 128 0 128 128 0 128 128 0 128 128 0 128 128 0 128 128 0 128 128 0 128 128 0 128 128 0 128 128 0 128 128 0 128 128 0 128 128 0 128 128 0 128 128 0 128 128 0 128 128 0 128 128 0 128 128 0 128 128 0 128 128 0 128 128 0 0 0 0 
0 0 0 0 0 0 0 0 0 0 0 0 0 0 0 0 0 0 0 0 0 0 0 0 0 0 0 0 0 0 0 0 0 0 0 0 0 0 0 0 0 0 0 0 0 0 0 0 0 0 0 0 0 0 0 0 0 0 0 0 0 0 0 0 0 0 0 0 0 0 0 0 0 0 0 0 0 0 0 0 0 0 0 0 0 0 0 0 0 0 128 128 0 128 128 0 128 128 0 128 128 0 128 128 0 128 128 0 128 128 0 128 128 0 128 128 0 128 128 0 128 128 0 128 128 0 128 128 0 128 128 0 128 128 0 128 128 0 128 128 0 128 128 0 128 128 0 128 128 0 
128 128 0 128 128 0 128 128 0 128 128 0 128 128 0 128 128 0 128 128 0 128 128 0 128 128 0 128 128 0 128 128 0 128 128 0 128 128 0 128 128 0 128 128 0 128 128 0 128 128 0 128 128 0 128 128 0 128 128 0 0 0 0 0 0 0 0 0 0 0 0 0 0 0 0 0 0 0 0 0 0 0 0 0 0 0 0 0 0 0 0 0 0 0 0 0 0 0 0 0 0 0 0 0 0 0 0 0 0 0 0 0 0 0 0 0 0 0 0 0 0 0 0 0 0 0 0 0 0 0 0 0 0 0 0 0 0 0 0 0 0 0 0 0 0 0 0 0 0 0 
128 128 0 128 128 0 128 128 0 128 128 0 128 128 0 128 128 0 128 128 0 128 128 0 128 128 0 128 128 0 128 128 0 128 128 0 128 128 0 128 128 0 128 128 0 128 128 0 128 128 0 128 128 0 128 128 0 128 128 0 128 128 0 128 128 0 128 128 0 128 128 0 128 128 0 128 128 0 128 128 0 128 128 0 128 128 0 128 128 0 128 128 0 128 128 0 128 128 0 128 128 0 128 128 0 128 128 0 128 128 0 128 128 0 128 128 0 128 128 0 128 128 0 0 0 0 0 0 0 0 0 0 0 0 0 0 0 0 0 0 0 0 0 0 0 0 0 0 0 0 
0 0 0 0 0 0 0 0 0 0 0 0 0 0 0 0 0 0 0 0 0 0 0 0 0 0 0 0 0 0 0 0 0 0 0 0 0 0 0 0 0 0 0 0 0 0 0 0 0 0 0 0 0 0 0 0 0 0 0 0 128 128 0 128 128 0 128 128 0 128 128 0 128 128 0 128 128 0 128 128 0 128 128 0 128 128 0 128 128 0 128 128 0 128 128 0 128 128 0 128 128 0 128 128 0 128 128 0 128 128 0 128 128 0 128 128 0 128 128 0 128 128 0 128 128 0 128 128 0 128 128 0 128 128 0 128 128 0 128 128 0 128 128 0 128 128 0 128 128 0 
128 128 0 128 128 0 128 128 0 128 128 0 128 128 0 128 128 0 128 128 0 128 128 0 128 128 0 128 128 0 128 128 0 128 128 0 0 0 0 0 0 0 0 0 0 0 0 0 0 0 0 0 0 0 0 0 0 0 0 0 0 0 0 0 0 0 0 0 0 0 0 0 0 0 0 0 0 0 0 0 0 0 0 0 0 0 0 0 0 0 0 0 0 0 0 0 0 0 0 0 0 0 0 0 0 0 0 0 0 0 0 0 0 0 0 0 0 0 0 0 128 128 0 128 128 0 128 128 0 128 128 0 128 128 0 128 128 0 128 128 0 128 128 0 128 128 0 128 128 0 
128 128 0 128 128 0 128 128 0 128 128 0 128 128 0 128 128 0 128 128 0 128 128 0 128 128 0 128 128 0 128 128 0 128 128 0 128 128 0 128 128 0 128 128 0 128 128 0 128 128 0 128 128 0 128 128 0 128 128 0 128 128 0 128 128 0 128 128 0 128 128 0 128 128 0 128 128 0 128 128 0 128 128 0 128 128 0 128 128 0 128 128 0 128 128 0 128 128 0 0 0 0 0 0 0 0 0 0 0 0 0 0 0 0 0 0 0 0 0 0 0 0 0 0 0 0 0 0 0 0 0 0 0 0 0 0 0 0 0 0 0 0 0 0 0 0 0 0 0 0 
0 0 0 0 0 0 0 0 0 0 0 0 0 0 0 0 0 0 0 0 0 0 0 0 0 0 0 0 0 0 128 128 0 128 128 0 128 128 0 128 128 0 128 128 0 128 128 0 128 128 0 128 128 0 128 128 0 128 128 0 128 128 0 128 128 0 128 128 0 128 128 0 128 128 0 128 128 0 128 128 0 128 128 0 128 128 0 128 128 0 128 128 0 128 128 0 128 128 0 128 128 0 128 128 0 128 128 0 128 128 0 128 128 0 128 128 0 128 128 0 128 128 0 128 128 0 128 128 0 128 128 0 128 128 0 128 128 0 128 128 0 128 128 0 128 128 0 128 128 0 
128 128 0 128 128 0 128 128 0 128 128 0 0 0 0 0 0 0 0 0 0 0 0 0 0 0 0 0 0 0 0 0 0 0 0 0 0 0 0 0 0 0 0 0 0 0 0 0 0 0 0 0 0 0 0 0 0 0 0 0 0 0 0 0 0 0 0 0 0 0 0 0 0 0 0 0 0 0 0 0 0 0 0 0 0 0 0 0 0 0 128 128 0 128 128 0 128 128 0 128 128 0 128 128 0 128 128 0 128 128 0 128 128 0 128 128 0 128 128 0 128 128 0 128 128 0 128 128 0 128 128 0 128 128 0 128 128 0 128 128 0 128 128 0 128 128 0 128 128 0 
128 128 0 128 128 0 128 128 0 128 128 0 128 128 0 128 128 0 128 128 0 128 128 0 128 128 0 128 128 0 128 128 0 128 128 0 128 128 0 128 128 0 128 128 0 128 128 0 128 128 0 128 128 0 128 128 0 128 128 0 128 128 0 128 128 0 128 128 0 128 128 0 128 128 0 0 0 0 0 0 0 0 0 0 0 0 0 0 0 0 0 0 0 0 0 0 0 0 0 0 0 0 0 0 0 0 0 0 0 0 0 0 0 0 0 0 0 0 0 0 0 0 0 0 0 0 0 0 0 0 0 0 0 0 0 0 0 0 0 0 0 0 0 0 0 0 0 0 0 0 
128 128 0 128 128 0 128 128 0 128 128 0 128 128 0 128 128 0 128 128 0 128 128 0 128 128 0 128 128 0 128 128 0 128 128 0 128 128 0 128 128 0 128 128 0 128 128 0 128 128 0 128 128 0 128 128 0 128 128 0 128 128 0 128 128 0 128 128 0 128 128 0 128 128 0 128 128 0 128 128 0 128 128 0 128 128 0 128 128 0 128 128 0 128 128 0 128 128 0 128 128 0 128 128 0 128 128 0 128 128 0 128 128 0 128 128 0 128 128 0 128 128 0 128 128 0 128 128 0 128 128 0 128 128 0 128 128 0 0 0 0 0 0 0 0 0 0 0 0 0 
0 0 0 0 0 0 0 0 0 0 0 0 0 0 0 0 0 0 0 0 0 0 0 0 0 0 0 0 0 0 0 0 0 0 0 0 0 0 0 0 0 0 0 0 0 0 0 0 0 0 0 0 0 0 0 0 0 0 0 0 128 128 0 128 128 0 128 128 0 128 128 0 128 128 0 128 128 0 128 128 0 128 128 0 128 128 0 128 128 0 128 128 0 128 128 0 128 128 0 128 128 0 128 128 0 128 128 0 128 128 0 128 128 0 128 128 0 128 128 0 128 128 0 128 128 0 128 128 0 128 128 0 128 128 0 128 128 0 128 128 0 128 128 0 128 128 0 128 128 0 
128 128 0 128 128 0 128 128 0 128 128 0 128 128 0 128 128 0 128 128 0 128 128 0 128 128 0 128 128 0 128 128 0 128 128 0 128 128 0 128 128 0 128 128 0 128 128 0 128 128 0 0 0 0 0 0 0 0 0 0 0 0 0 0 0 0 0 0 0 0 0 0 0 0 0 0 0 0 0 0 0 0 0 0 0 0 0 0 0 0 0 0 0 0 0 0 0 0 0 0 0 0 0 0 0 0 0 0 0 0 0 0 0 0 0 0 0 0 0 0 128 128 0 128 128 0 128 128 0 128 128 0 128 128 0 128 128 0 128 128 0 128 128 0 128 128 0 128 128 0 
128 128 0 128 128 0 128 128 0 128 128 0 128 128 0 128 128 0 128 128 0 128 128 0 128 128 0 128 128 0 128 128 0 128 128 0 128 128 0 128 128 0 128 128 0 128 128 0 128 128 0 128 128 0 128 128 0 128 128 0 128 128 0 128 128 0 128 128 0 128 128 0 128 128 0 128 128 0 128 128 0 128 128 0 128 128 0 128 128 0 128 128 0 128 128 0 128 128 0 128 128 0 128 128 0 128 128 0 128 128 0 128 128 0 0 0 0 0 0 0 0 0 0 0 0 0 0 0 0 0 0 0 0 0 0 0 0 0 0 0 0 0 0 0 0 0 0 0 0 0 
0 0 0 0 0 0 0 0 0 0 0 0 0 0 0 0 0 0 0 0 0 0 0 0 0 0 0 0 0 0 128 128 0 128 128 0 128 128 0 128 128 0 128 128 0 128 128 0 128 128 0 128 128 0 128 128 0 128 128 0 128 128 0 128 128 0 128 128 0 128 128 0 128 128 0 128 128 0 128 128 0 128 128 0 128 128 0 128 128 0 128 128 0 128 128 0 128 128 0 128 128 0 128 128 0 128 128 0 128 128 0 128 128 0 128 128 0 128 128 0 128 128 0 128 128 0 128 128 0 128 128 0 128 128 0 128 128 0 128 128 0 128 128 0 128 128 0 128 128 0 
128 128 0 128 128 0 128 128 0 128 128 0 128 128 0 128 128 0 128 128 0 128 128 0 128 128 0 0 0 0 0 0 0 0 0 0 0 0 0 0 0 0 0 0 0 0 0 0 0 0 0 0 0 0 0 0 0 0 0 0 0 0 0 0 0 0 0 0 0 0 0 0 0 0 0 0 0 0 0 0 0 0 0 0 0 0 0 0 0 0 128 128 0 128 128 0 128 128 0 128 128 0 128 128 0 128 128 0 128 128 0 128 128 0 128 128 0 128 128 0 128 128 0 128 128 0 128 128 0 128 128 0 128 128 0 128 128 0 128 128 0 128 128 0 128 128 0 128 128 0 
128 128 0 128 128 0 128 128 0 128 128 0 128 128 0 128 128 0 128 128 0 128 128 0 128 128 0 128 128 0 128 128 0 128 128 0 128 128 0 128 128 0 128 128 0 128 128 0 128 128 0 128 128 0 128 128 0 128 128 0 128 128 0 128 128 0 128 128 0 128 128 0 128 128 0 128 128 0 128 128 0 128 128 0 128 128 0 128 128 0 0 0 0 0 0 0 0 0 0 0 0 0 0 0 0 0 0 0 0 0 0 0 0 0 0 0 0 0 0 0 0 0 0 0 0 0 0 0 0 0 0 0 0 0 0 0 0 0 0 0 0 0 0 0 0 0 0 0 0 0 
